<?xml version="1.0" standalone="no"?>
<!DOCTYPE svg PUBLIC "-//W3C//DTD SVG 20010904//EN"
 "http://www.w3.org/TR/2001/REC-SVG-20010904/DTD/svg10.dtd">
<svg version="1.0" xmlns="http://www.w3.org/2000/svg"
 width="1600.000000pt" height="1600.000000pt" viewBox="0 0 1600.000000 1600.000000"
 preserveAspectRatio="xMidYMid meet">
<metadata>
Created by potrace 1.11, written by Peter Selinger 2001-2013
</metadata>
<g transform="translate(0.000000,1600.000000) scale(0.100000,-0.100000)"
fill="#000000" stroke="none">
<path d="M5979 12756 c-2 -2 -40 -7 -84 -11 -44 -4 -82 -8 -85 -10 -5 -3 -62
-14 -100 -19 -18 -3 -129 -34 -150 -43 -8 -3 -22 -7 -30 -9 -18 -4 -74 -27
-179 -76 -154 -72 -320 -186 -430 -295 -29 -29 -57 -53 -62 -53 -5 0 -9 -4 -9
-9 0 -4 -10 -19 -22 -33 -110 -120 -172 -190 -326 -367 -26 -30 -60 -69 -77
-87 -16 -18 -46 -52 -65 -75 -19 -23 -42 -49 -51 -58 -9 -9 -52 -56 -95 -106
-43 -49 -82 -95 -88 -101 -6 -6 -33 -37 -61 -69 -27 -32 -55 -63 -60 -69 -6
-6 -59 -67 -120 -136 -60 -69 -122 -138 -137 -155 -15 -16 -37 -41 -49 -55
-63 -75 -117 -137 -144 -166 -16 -17 -49 -54 -72 -80 -23 -27 -52 -61 -65 -75
-13 -14 -45 -52 -73 -84 -27 -32 -62 -71 -77 -87 -16 -17 -28 -34 -28 -39 0
-5 -7 -9 -15 -9 -8 0 -15 -5 -15 -10 0 -11 -51 -71 -99 -117 -13 -13 -21 -23
-18 -23 3 0 -7 -12 -21 -28 -15 -15 -56 -61 -92 -101 -36 -41 -74 -84 -85 -97
-11 -12 -39 -44 -61 -71 -23 -26 -52 -59 -65 -73 -13 -15 -47 -53 -76 -85 -28
-33 -64 -73 -78 -90 -14 -16 -45 -52 -68 -78 -23 -27 -51 -59 -62 -71 -45 -50
-113 -127 -155 -176 -25 -28 -54 -61 -65 -74 -11 -12 -51 -57 -90 -101 -38
-44 -76 -86 -82 -93 -7 -7 -13 -18 -13 -23 0 -5 -7 -9 -15 -9 -8 0 -15 -4 -15
-8 0 -5 -14 -24 -31 -43 -17 -19 -54 -61 -82 -94 -29 -33 -67 -74 -84 -93 -18
-18 -33 -35 -33 -37 0 -2 -17 -23 -37 -46 -21 -22 -49 -54 -63 -69 -14 -15
-52 -58 -85 -95 -33 -38 -73 -83 -90 -101 -16 -17 -50 -56 -75 -85 -25 -29
-61 -71 -81 -92 l-36 -39 -589 -2 c-588 -1 -589 -1 -630 -23 -55 -30 -109 -93
-124 -148 -14 -50 -7 -132 15 -174 29 -57 108 -119 160 -128 11 -2 278 -4 593
-4 l574 -2 31 -35 c18 -19 43 -47 57 -62 14 -15 41 -46 60 -69 19 -23 53 -61
75 -85 22 -24 51 -57 65 -73 81 -94 207 -237 240 -273 8 -9 42 -47 75 -85 32
-39 69 -81 82 -95 12 -14 42 -47 65 -75 24 -27 60 -67 81 -88 20 -22 37 -43
37 -46 0 -4 10 -17 23 -28 12 -11 35 -35 51 -54 28 -34 132 -152 151 -173 6
-6 39 -45 75 -86 36 -41 74 -84 85 -96 21 -22 40 -44 145 -164 36 -41 72 -81
80 -90 17 -19 49 -55 140 -160 35 -41 71 -82 80 -91 8 -9 42 -47 75 -85 33
-38 74 -84 92 -102 18 -19 33 -38 33 -42 0 -5 8 -15 18 -22 9 -7 30 -29 46
-48 16 -19 49 -58 75 -86 25 -29 60 -67 76 -86 17 -19 59 -67 95 -107 75 -85
78 -89 145 -166 28 -32 59 -68 70 -79 11 -12 36 -40 55 -62 19 -22 62 -71 95
-109 33 -38 69 -79 80 -92 11 -13 37 -42 57 -65 21 -22 55 -61 75 -85 21 -25
52 -60 68 -78 17 -18 55 -61 85 -96 30 -34 66 -74 78 -89 13 -14 47 -52 75
-84 29 -33 61 -70 72 -82 11 -12 40 -45 65 -74 25 -29 54 -63 65 -74 11 -12
49 -55 85 -96 80 -94 232 -246 285 -285 22 -17 42 -32 45 -36 8 -9 123 -85
161 -107 71 -40 164 -89 169 -89 3 -1 23 -8 45 -17 91 -39 211 -76 290 -91 35
-6 79 -15 105 -20 81 -16 329 -22 435 -10 28 3 65 7 83 8 17 1 32 4 32 7 0 3
8 6 18 6 25 1 69 10 132 28 30 9 66 18 80 22 14 3 39 12 57 20 17 8 34 14 37
14 3 0 36 14 73 32 38 17 73 32 78 34 6 1 34 16 62 33 27 17 55 31 62 31 6 0
11 4 11 8 0 4 15 16 33 27 129 76 253 190 447 410 73 83 136 152 141 153 5 2
9 8 9 13 0 5 8 17 18 27 9 10 46 51 82 92 36 41 72 81 80 90 8 9 30 34 49 55
135 158 143 166 160 146 15 -17 88 -99 176 -199 22 -25 49 -56 60 -68 11 -12
36 -41 56 -65 21 -24 50 -58 65 -75 31 -33 128 -142 184 -208 45 -53 225 -232
270 -269 30 -24 158 -112 225 -154 121 -76 399 -178 536 -197 19 -3 45 -8 59
-11 68 -15 322 -25 378 -14 19 4 32 3 32 -3 0 -6 6 -5 15 2 8 7 21 10 29 7 8
-3 17 -3 21 1 4 4 20 8 36 8 16 1 30 2 32 4 3 2 33 8 67 14 58 10 100 21 190
54 52 18 101 34 108 34 6 1 12 6 12 11 0 6 3 7 6 4 12 -12 341 175 374 212 3
3 25 22 50 42 61 49 180 168 180 180 0 5 7 9 15 9 8 0 15 5 15 11 0 7 8 19 18
28 9 9 44 48 77 86 55 64 101 116 165 186 14 15 43 48 65 74 21 25 48 57 60
69 17 19 76 87 142 162 108 124 131 151 148 170 11 12 47 53 80 90 33 38 70
79 83 92 12 12 22 25 22 27 0 3 15 20 33 38 17 19 52 58 77 87 25 29 56 65 70
80 14 15 45 51 70 80 25 29 56 65 70 79 14 15 54 60 90 101 35 41 73 83 84 93
10 9 16 17 13 17 -3 0 13 20 36 44 23 24 61 65 84 92 22 27 54 63 70 81 15 17
53 60 83 94 30 35 65 74 78 87 12 12 22 26 22 29 0 3 8 13 18 22 9 9 49 52 87
96 128 146 140 159 168 188 15 16 27 30 27 33 0 2 8 12 18 22 17 17 91 102
169 191 21 25 52 59 68 77 33 37 56 63 130 149 28 31 59 67 70 79 11 12 49 55
85 96 36 41 76 87 90 102 14 15 42 46 62 70 20 24 51 59 68 78 17 19 49 56 71
81 21 25 49 57 61 71 13 13 50 55 83 93 33 38 71 81 85 96 27 30 106 119 140
159 57 67 138 157 166 186 l30 32 570 1 c488 0 609 2 609 11 0 1 8 3 17 5 46
9 119 83 139 141 29 86 10 178 -49 242 -75 82 -33 77 -701 78 -525 1 -595 3
-603 17 -4 9 -25 33 -46 55 -20 22 -56 61 -79 88 -67 78 -90 105 -161 183 -37
40 -71 80 -75 88 -5 8 -21 27 -36 41 -15 15 -60 65 -101 112 -72 83 -98 112
-146 164 -13 14 -24 27 -24 30 0 2 -15 19 -32 38 -28 29 -79 86 -155 174 -10
12 -47 54 -83 95 -36 40 -76 86 -90 101 -14 16 -41 46 -60 67 -19 21 -53 60
-75 86 -22 26 -58 66 -80 90 -23 24 -59 65 -80 91 -22 27 -62 72 -90 102 -27
30 -56 63 -62 73 -7 9 -30 35 -50 57 -21 22 -60 65 -88 97 -27 32 -60 70 -73
84 -13 14 -42 48 -65 75 -23 26 -58 65 -77 86 -19 21 -51 57 -70 80 -19 23
-51 59 -70 80 -19 22 -53 60 -75 85 -22 25 -47 54 -56 63 -9 9 -38 42 -64 72
-26 30 -72 82 -101 115 -29 33 -61 69 -71 81 -103 118 -133 151 -160 181 -18
18 -33 36 -33 40 0 3 -10 15 -23 27 -13 11 -48 50 -78 85 -30 35 -71 82 -91
103 -21 21 -36 38 -33 38 2 0 -11 15 -28 34 -18 18 -54 59 -82 92 -27 32 -63
72 -80 90 -16 18 -52 58 -80 90 -44 51 -109 126 -140 160 -5 6 -35 39 -65 74
-30 35 -66 75 -78 89 -13 14 -47 53 -75 86 -80 92 -223 230 -291 281 -33 25
-69 52 -79 60 -9 8 -19 14 -22 14 -2 0 -23 13 -47 29 -66 43 -176 100 -182 93
-3 -3 -6 0 -6 6 0 7 -3 11 -7 10 -5 -1 -21 4 -38 11 -73 31 -189 71 -217 76
-17 3 -36 9 -41 12 -6 3 -22 7 -36 9 -14 1 -37 5 -51 8 -130 29 -350 39 -503
22 -71 -8 -80 -9 -164 -27 -29 -5 -63 -11 -75 -13 -13 -1 -33 -8 -45 -15 -13
-6 -23 -9 -23 -5 0 3 -7 1 -15 -6 -8 -7 -15 -10 -15 -7 0 8 -117 -36 -210 -79
-41 -19 -77 -34 -79 -34 -2 1 -7 -2 -10 -7 -3 -4 -26 -19 -51 -32 -25 -14 -47
-27 -50 -31 -3 -3 -23 -17 -45 -30 -22 -13 -42 -26 -45 -29 -3 -4 -25 -22 -50
-41 -65 -50 -76 -60 -133 -115 -51 -50 -84 -86 -202 -220 -33 -37 -73 -82 -90
-100 -16 -17 -51 -56 -77 -87 -26 -30 -58 -66 -70 -79 -13 -14 -50 -56 -83
-94 -33 -37 -73 -82 -90 -100 -16 -17 -45 -50 -64 -73 l-34 -41 -26 27 c-25
26 -113 125 -246 277 -33 38 -73 83 -90 101 -16 18 -46 51 -65 74 -19 23 -54
62 -77 86 -24 24 -43 46 -43 48 0 2 -24 30 -52 61 -173 190 -308 298 -503 401
-98 52 -257 118 -306 128 -23 4 -40 9 -76 22 -10 4 -25 8 -33 9 -8 1 -28 5
-44 8 -16 4 -50 9 -75 13 -25 4 -55 8 -66 11 -26 5 -312 13 -316 9z m235 -480
c43 -4 82 -9 86 -11 4 -2 23 -6 42 -9 55 -7 217 -64 302 -107 147 -74 292
-190 405 -324 18 -22 52 -60 75 -85 23 -25 66 -74 96 -110 30 -36 57 -67 60
-70 28 -28 210 -234 245 -277 11 -14 39 -45 63 -70 23 -24 42 -46 42 -48 0 -2
14 -19 30 -37 36 -39 36 -38 9 -69 -11 -13 -32 -37 -46 -54 -15 -16 -40 -46
-57 -66 -17 -19 -59 -66 -92 -105 -34 -38 -114 -130 -179 -204 -64 -74 -133
-154 -153 -176 -21 -23 -53 -61 -73 -85 -21 -24 -50 -58 -65 -75 -16 -17 -51
-57 -79 -89 -27 -33 -57 -66 -65 -75 -8 -8 -53 -60 -100 -115 -47 -55 -87
-102 -91 -105 -3 -3 -25 -27 -48 -55 -24 -27 -65 -75 -91 -105 -65 -72 -94
-107 -133 -153 -18 -22 -48 -56 -67 -77 -19 -21 -55 -62 -80 -91 -72 -84 -79
-92 -123 -142 -23 -27 -57 -64 -74 -83 -18 -19 -31 -34 -28 -34 2 0 -8 -13
-23 -28 -15 -16 -52 -57 -82 -92 -71 -82 -141 -162 -154 -176 -6 -6 -26 -29
-45 -52 -18 -23 -47 -57 -65 -75 -17 -19 -53 -60 -81 -92 -27 -32 -58 -67 -68
-79 -10 -11 -36 -41 -57 -66 -21 -25 -55 -63 -74 -85 l-36 -40 -38 42 c-44 50
-140 157 -161 182 -67 77 -123 140 -143 162 -12 14 -48 54 -78 89 -30 35 -64
74 -75 86 -22 24 -39 43 -135 154 -209 242 -453 415 -715 505 -44 15 -87 30
-95 33 -8 3 -19 7 -25 8 -5 1 -13 3 -17 4 -5 1 -12 4 -18 5 -5 1 -11 3 -12 5
-2 1 -10 3 -18 5 -133 27 -274 42 -404 43 -71 1 -130 3 -132 4 -3 3 21 31 95
113 15 17 56 64 91 105 36 41 74 84 85 95 11 12 40 45 65 74 25 29 54 63 65
75 11 13 47 53 80 91 33 37 69 78 80 90 22 25 39 45 135 155 36 41 76 86 90
101 14 14 41 45 60 69 19 24 46 55 60 69 14 14 72 80 129 146 58 66 112 127
120 136 9 8 35 38 58 66 24 27 53 61 65 75 13 13 48 53 78 88 30 35 64 74 75
86 25 27 134 150 158 178 29 34 110 127 132 151 23 26 114 129 145 165 49 56
99 107 134 135 21 17 48 38 60 49 94 82 327 196 451 222 110 22 171 32 191 29
13 -1 24 1 24 4 0 7 104 6 214 -3z m3866 -10 c13 -3 42 -8 64 -12 22 -3 47 -9
56 -13 8 -5 37 -13 63 -20 64 -16 228 -88 235 -103 2 -5 8 -8 14 -8 22 0 165
-109 237 -180 72 -71 163 -169 205 -221 10 -13 37 -44 60 -69 23 -25 70 -79
106 -120 62 -71 134 -152 155 -176 6 -6 37 -42 70 -79 33 -38 65 -73 70 -79 6
-6 39 -45 75 -86 35 -41 71 -82 80 -91 8 -9 38 -42 65 -74 28 -32 59 -67 70
-79 21 -23 205 -232 246 -280 13 -16 42 -48 64 -72 22 -23 51 -57 65 -74 14
-17 41 -48 60 -69 19 -20 55 -61 80 -90 25 -29 61 -70 80 -91 19 -21 55 -61
80 -90 25 -29 59 -67 75 -85 17 -18 50 -56 75 -85 25 -29 56 -65 70 -80 52
-56 110 -125 110 -130 0 -3 -64 -5 -143 -5 -140 0 -302 -14 -302 -25 0 -1 -15
-3 -33 -6 -84 -11 -327 -93 -407 -137 -11 -6 -23 -10 -27 -9 -3 1 -12 -5 -18
-13 -7 -8 -19 -15 -26 -15 -8 0 -14 -5 -14 -12 0 -6 -3 -9 -6 -6 -8 8 -199
-120 -258 -173 -27 -24 -74 -71 -105 -103 -31 -33 -68 -73 -83 -89 -16 -16
-28 -30 -28 -33 0 -2 -8 -12 -17 -22 -10 -10 -40 -44 -68 -76 -27 -32 -55 -64
-62 -71 -7 -7 -44 -50 -84 -96 -39 -46 -75 -86 -78 -89 -3 -3 -33 -36 -65 -75
-33 -38 -64 -74 -70 -80 -6 -5 -36 -39 -66 -74 -30 -36 -65 -76 -78 -90 l-24
-26 -51 57 c-29 30 -66 73 -84 94 -17 22 -46 55 -65 75 -18 20 -51 58 -73 84
-22 26 -51 59 -65 74 -14 15 -50 56 -80 91 -30 35 -63 73 -73 84 -10 12 -28
32 -40 46 -61 71 -153 176 -157 180 -3 3 -34 39 -70 80 -36 41 -69 80 -75 86
-5 6 -32 37 -60 69 -27 32 -59 68 -70 80 -11 13 -45 51 -75 85 -30 35 -59 68
-65 74 -5 6 -35 40 -65 76 -30 36 -64 74 -75 86 -21 23 -95 107 -164 188 -23
27 -48 54 -54 61 -7 7 -32 36 -56 65 -25 29 -50 58 -56 64 -9 10 -105 120
-214 244 -25 30 -55 64 -66 77 -11 12 -42 49 -70 80 -27 32 -63 72 -80 90 -16
18 -46 52 -67 76 -20 24 -44 53 -55 65 -10 12 -45 52 -78 89 -33 38 -69 78
-80 91 -83 92 -82 87 -45 124 3 3 30 34 60 70 30 36 59 70 65 76 5 6 33 37 60
69 28 32 55 63 61 69 5 6 43 49 84 96 41 47 77 87 80 90 3 3 34 39 69 80 36
41 72 82 80 91 9 9 38 42 66 74 197 229 458 380 745 428 83 14 337 16 390 3z
m-2068 -1599 c13 -13 34 -37 48 -53 14 -16 56 -65 95 -109 38 -44 78 -91 90
-104 11 -13 32 -36 46 -52 14 -15 44 -49 65 -75 21 -26 51 -59 65 -75 14 -15
48 -54 75 -85 27 -31 63 -73 79 -92 17 -19 39 -44 50 -56 11 -12 61 -68 110
-126 50 -58 101 -117 115 -131 14 -15 39 -44 57 -65 18 -22 46 -55 63 -74 17
-19 55 -62 83 -95 29 -32 61 -69 72 -81 11 -12 38 -43 60 -70 22 -26 51 -59
64 -73 13 -15 44 -50 70 -80 25 -30 59 -68 74 -85 41 -46 54 -61 162 -186 55
-63 102 -117 105 -120 3 -3 34 -39 70 -80 35 -41 71 -82 80 -91 8 -9 35 -40
60 -69 25 -29 54 -62 65 -75 18 -19 87 -98 152 -174 12 -14 20 -27 18 -29 -7
-8 -4220 -5 -4223 2 -2 4 21 35 50 68 29 34 67 77 83 96 17 19 41 47 54 61 13
14 44 50 70 80 50 59 115 132 146 167 11 12 43 48 70 80 28 32 57 65 65 74 8
9 39 45 69 80 30 36 64 74 75 86 12 12 41 45 66 75 25 29 54 63 65 75 11 12
43 48 70 80 28 32 61 70 75 85 14 15 45 51 70 81 25 29 54 62 65 73 11 12 43
48 70 80 28 33 57 66 65 75 8 9 33 38 55 64 22 25 57 64 78 86 20 22 37 44 37
49 0 5 4 11 8 13 7 2 129 137 192 211 8 10 22 27 30 36 14 17 131 149 155 175
6 6 37 43 70 81 33 38 67 77 75 85 8 9 40 45 70 80 30 35 65 75 77 89 13 14
23 29 23 34 0 12 8 8 32 -16z m-4432 -1451 c14 -2 36 -7 50 -10 14 -3 43 -10
65 -14 125 -28 281 -98 405 -183 97 -67 158 -123 249 -229 36 -41 72 -82 80
-92 9 -9 36 -40 61 -69 25 -29 56 -65 70 -80 14 -15 43 -48 65 -75 22 -26 57
-67 78 -90 80 -89 95 -108 92 -114 -5 -8 -2785 -6 -2788 2 -2 6 47 64 118 142
15 17 137 157 165 190 14 16 38 44 54 60 15 17 45 51 65 76 80 98 188 200 306
288 15 11 109 66 115 67 3 1 24 11 48 23 23 12 42 19 42 15 0 -5 4 -3 8 3 15
23 206 77 321 90 31 3 58 8 60 10 4 4 236 -5 271 -10z m9145 4 c3 -5 13 -6 23
-4 9 3 62 -7 117 -22 55 -14 107 -27 115 -29 31 -5 160 -67 236 -112 109 -64
244 -181 322 -280 19 -23 44 -53 55 -66 12 -13 49 -54 82 -91 33 -37 69 -78
80 -90 11 -12 49 -55 85 -96 36 -41 74 -84 85 -96 49 -54 64 -74 57 -75 -31
-3 -2794 0 -2797 3 -2 2 15 25 38 50 23 26 56 64 74 85 17 21 48 57 70 80 21
23 52 59 69 80 18 21 42 50 55 64 26 29 99 112 179 204 28 33 77 81 108 108
70 60 199 147 217 147 7 0 15 4 17 8 4 10 107 55 183 80 55 18 174 46 235 55
49 7 290 5 295 -3z m-7925 -1450 c0 -4 -10 -18 -22 -32 -21 -22 -99 -111 -145
-164 -92 -107 -114 -132 -134 -155 -42 -46 -136 -153 -165 -189 -172 -208
-442 -359 -733 -410 -147 -26 -392 -14 -501 25 -22 8 -42 14 -45 15 -33 4 -66
14 -71 21 -3 5 -12 9 -20 9 -22 0 -143 59 -207 102 -32 21 -61 38 -63 38 -3 0
-11 6 -19 13 -7 6 -32 28 -56 47 -55 45 -216 210 -204 210 2 0 -16 19 -39 43
-23 24 -59 65 -81 92 -22 27 -53 64 -70 81 -72 77 -225 253 -225 258 0 1 630
3 1400 3 770 0 1400 -4 1400 -7z m5303 3 c7 -4 -40 -62 -114 -144 -31 -34
-130 -148 -155 -178 -10 -13 -26 -31 -35 -40 -9 -9 -51 -56 -94 -106 -43 -49
-85 -98 -94 -107 -9 -9 -34 -38 -56 -64 -22 -26 -56 -65 -76 -86 -20 -21 -33
-38 -30 -38 3 0 -5 -10 -17 -22 -27 -27 -52 -55 -215 -242 -11 -12 -40 -46
-65 -76 -26 -29 -65 -73 -88 -97 -23 -24 -39 -43 -37 -43 2 0 -12 -17 -31 -37
-19 -21 -44 -49 -56 -63 -59 -69 -118 -137 -140 -161 -14 -15 -41 -46 -60 -69
-19 -23 -51 -60 -70 -81 -19 -21 -53 -59 -75 -84 -22 -26 -49 -57 -60 -69 -51
-58 -84 -96 -140 -161 -33 -38 -64 -75 -70 -81 -18 -20 -123 -139 -145 -164
-25 -30 -105 -120 -154 -175 -35 -39 -37 -40 -51 -20 -9 11 -37 44 -63 73 -26
30 -61 70 -79 90 -17 21 -44 51 -60 69 -15 17 -48 55 -73 84 -25 28 -56 64
-70 79 -28 31 -59 67 -122 142 -24 28 -60 68 -80 90 -21 22 -38 42 -38 44 0 2
-8 12 -17 22 -19 19 -107 119 -184 207 -87 100 -164 189 -184 211 -11 12 -40
46 -65 75 -25 29 -49 57 -55 63 -5 6 -39 45 -75 86 -36 41 -67 77 -70 80 -3 3
-34 39 -70 80 -36 41 -67 77 -70 80 -3 3 -34 39 -70 80 -35 41 -85 98 -110
125 -25 28 -66 75 -92 105 -25 30 -54 64 -65 76 -10 11 -43 49 -73 84 -30 34
-60 68 -65 74 -6 6 -53 61 -105 121 -52 61 -100 115 -105 120 -6 6 -18 19 -28
31 l-17 21 2112 0 c1162 0 2117 -1 2121 -4z m3876 -2 c11 -1 10 -5 -5 -20 -10
-10 -41 -44 -69 -77 -27 -32 -66 -75 -85 -96 -19 -20 -46 -50 -59 -65 -37 -44
-144 -165 -171 -194 -14 -15 -37 -42 -52 -61 -47 -59 -151 -157 -234 -218 -85
-64 -251 -151 -324 -170 -25 -7 -51 -17 -57 -22 -7 -6 -13 -8 -13 -5 0 3 -15
1 -32 -4 -33 -10 -47 -12 -147 -28 -89 -14 -345 -4 -401 15 -8 3 -26 8 -40 10
-27 5 -113 31 -145 43 -52 21 -131 56 -135 61 -3 3 -25 16 -50 29 -125 68
-278 207 -403 367 -12 16 -38 45 -57 65 -19 20 -48 52 -63 70 -28 34 -67 78
-190 219 -45 52 -61 77 -52 80 11 4 2721 5 2784 1z m-8620 -140 c9 -10 41 -46
71 -81 30 -35 63 -72 73 -84 10 -12 28 -32 41 -46 12 -14 53 -61 91 -105 37
-44 76 -87 84 -96 9 -8 34 -37 56 -63 22 -27 49 -58 60 -71 11 -12 40 -45 65
-74 25 -29 56 -65 70 -80 14 -16 50 -57 80 -92 30 -34 66 -75 80 -90 14 -15
41 -46 60 -69 19 -23 49 -57 65 -75 17 -18 48 -54 70 -80 22 -26 47 -55 55
-65 8 -9 40 -45 70 -79 30 -35 64 -73 75 -85 11 -12 40 -46 65 -75 25 -30 59
-68 75 -86 26 -29 67 -75 145 -165 53 -62 117 -135 135 -156 19 -21 101 -114
138 -158 78 -91 125 -144 142 -162 11 -11 42 -47 70 -80 27 -32 54 -64 60 -70
5 -6 37 -41 70 -79 33 -38 69 -78 80 -90 11 -13 40 -46 65 -75 25 -29 64 -74
87 -99 23 -25 38 -51 35 -57 -4 -7 -29 -36 -57 -66 -27 -30 -72 -81 -100 -112
-27 -32 -61 -71 -75 -86 -54 -60 -145 -163 -150 -170 -4 -7 -81 -94 -155 -175
-11 -13 -40 -47 -65 -76 -85 -101 -225 -234 -300 -284 -70 -46 -252 -144 -268
-144 -6 0 -21 -4 -54 -16 -5 -1 -9 -3 -10 -5 -2 -1 -10 -3 -18 -5 -8 -2 -46
-10 -85 -20 -38 -9 -100 -18 -138 -20 -37 -2 -71 -6 -75 -8 -16 -8 -234 7
-274 19 -9 3 -27 7 -40 9 -13 3 -36 8 -53 12 -16 4 -33 7 -37 7 -3 1 -10 4
-14 9 -4 4 -14 7 -22 7 -49 0 -357 168 -370 201 -2 5 -8 9 -13 9 -13 0 -158
146 -234 235 -33 39 -65 75 -71 80 -5 6 -39 44 -75 85 -85 98 -114 131 -174
197 -27 31 -59 67 -70 81 -11 14 -36 42 -55 63 -19 20 -51 56 -70 79 -19 23
-46 54 -60 69 -36 39 -85 95 -160 181 -36 41 -69 80 -75 86 -5 6 -37 42 -70
80 -33 37 -67 75 -75 84 -8 9 -44 50 -79 91 -36 41 -72 81 -80 90 -9 9 -32 35
-51 58 -19 23 -53 61 -75 85 -22 24 -56 63 -75 86 -19 23 -53 61 -75 84 -22
24 -59 65 -81 92 -23 27 -52 61 -65 75 -21 22 -93 105 -169 193 -14 16 -42 47
-62 70 -21 23 -38 44 -38 48 0 3 51 6 113 5 135 -1 253 9 337 29 14 3 36 8 48
10 79 15 249 69 270 86 6 6 12 8 12 5 0 -8 221 103 236 117 6 6 27 20 47 31
20 11 37 23 37 27 0 5 5 8 10 8 11 0 24 10 61 43 10 9 21 17 23 17 5 0 86 71
121 105 17 18 62 69 175 197 14 16 36 42 50 57 14 15 43 49 65 75 22 26 49 58
60 69 11 12 47 53 80 92 95 109 107 124 151 171 23 24 40 44 37 44 -2 0 13 17
33 38 20 20 48 52 61 70 30 37 31 38 52 13z m5397 -107 c23 -24 40 -44 38 -44
-4 0 39 -49 99 -112 20 -22 37 -42 37 -44 0 -2 19 -25 43 -50 77 -84 102 -112
133 -151 18 -21 47 -54 65 -75 19 -20 57 -62 84 -94 103 -119 182 -198 266
-265 48 -38 92 -69 98 -69 6 0 11 -4 11 -8 0 -16 210 -129 320 -172 109 -43
261 -87 330 -95 19 -2 46 -7 60 -10 36 -8 314 -21 330 -15 23 8 40 6 40 -4 0
-6 -8 -18 -17 -27 -10 -8 -43 -44 -73 -79 -30 -35 -70 -79 -87 -98 -18 -18
-33 -36 -33 -38 0 -2 -8 -12 -17 -22 -19 -19 -59 -65 -153 -172 -30 -35 -64
-73 -75 -85 -11 -13 -47 -53 -80 -91 -33 -37 -78 -88 -100 -113 -22 -24 -49
-54 -60 -67 -11 -12 -39 -44 -61 -71 -23 -26 -52 -60 -65 -74 -13 -14 -51 -56
-84 -94 -33 -38 -71 -81 -85 -96 -14 -15 -45 -50 -70 -79 -25 -29 -54 -62 -65
-74 -11 -12 -49 -56 -85 -96 -36 -41 -76 -86 -90 -101 -14 -15 -45 -51 -70
-81 -25 -29 -59 -67 -75 -85 -17 -17 -49 -53 -70 -79 -22 -27 -56 -65 -75 -85
-31 -33 -75 -82 -138 -157 -296 -345 -445 -456 -742 -550 -102 -33 -197 -46
-335 -46 -189 -1 -329 26 -490 95 -16 7 -32 13 -35 13 -12 2 -191 107 -200
117 -3 3 -23 18 -45 35 -48 35 -146 133 -235 234 -36 40 -69 78 -75 84 -5 6
-39 45 -75 86 -36 41 -79 91 -97 110 -17 19 -41 46 -53 60 -30 35 -120 137
-150 170 -14 16 -45 51 -70 80 -25 29 -55 63 -68 76 -27 28 -25 32 38 101 25
28 68 76 95 109 28 32 61 70 75 85 14 16 45 51 70 80 25 29 56 65 70 80 14 15
41 46 60 69 19 23 44 52 55 64 11 12 43 48 70 80 28 32 61 70 75 86 47 52 85
95 153 175 38 44 85 98 105 120 21 23 64 72 97 110 33 38 69 79 80 90 11 12
32 37 47 56 14 19 44 53 65 75 21 23 61 67 88 99 28 32 55 63 60 69 6 6 37 43
70 81 64 74 84 97 128 144 15 16 27 35 27 41 0 6 5 8 10 5 6 -3 10 -3 10 2 0
4 15 25 33 45 103 117 134 153 147 174 8 13 20 24 27 24 7 0 13 4 13 10 0 5
12 23 28 39 15 16 36 40 47 53 11 14 45 53 75 87 30 35 73 84 95 109 22 25 47
53 55 62 15 16 103 117 151 174 13 15 43 49 66 75 24 25 43 51 43 56 0 6 17
-10 37 -34 20 -24 55 -63 79 -87z"/>
</g>
</svg>
