<svg width="200" height="119" viewBox="0 0 200 119" fill="none" xmlns="http://www.w3.org/2000/svg">
<g clip-path="url(#clip0)">
<path d="M182.91 56.2798L173.48 45.5698L173.36 45.4398L139.89 7.43976C137.874 5.11447 135.381 3.25085 132.58 1.97579C129.779 0.700728 126.736 0.0441693 123.659 0.0508119C120.582 0.0574546 117.542 0.727143 114.746 2.01428C111.951 3.30142 109.466 5.17579 107.46 7.50976L107.25 7.74976L99.92 15.9998L92.58 7.69976L92.41 7.50976C90.4095 5.17396 87.9292 3.29656 85.138 2.00533C82.3468 0.714105 79.3101 0.0393634 76.2348 0.0270277C73.1594 0.014692 70.1174 0.665052 67.3159 1.93384C64.5145 3.20264 62.0192 5.06008 60 7.37976L26.59 45.3798L26.42 45.5698L16.93 56.2798H3C2.20435 56.2798 1.44129 56.5958 0.87868 57.1584C0.31607 57.721 0 58.4841 0 59.2798H0C0 60.0754 0.31607 60.8385 0.87868 61.4011C1.44129 61.9637 2.20435 62.2798 3 62.2798H16.92L26.35 72.9998L59.93 111.17C61.9522 113.504 64.4554 115.373 67.268 116.649C70.0805 117.925 73.1358 118.577 76.2241 118.561C79.3124 118.545 82.3607 117.86 85.1597 116.555C87.9588 115.25 90.4423 113.355 92.44 111L92.58 110.84L99.91 102.5L107.25 110.84L107.42 111.03C109.419 113.376 111.901 115.263 114.697 116.561C117.492 117.86 120.535 118.539 123.618 118.552C126.7 118.565 129.749 117.912 132.556 116.638C135.363 115.364 137.861 113.499 139.88 111.17L173.36 73.1098L182.9 62.2698H196.83C197.626 62.2698 198.389 61.9537 198.951 61.3911C199.514 60.8285 199.83 60.0654 199.83 59.2698V59.2698C199.83 58.4741 199.514 57.711 198.951 57.1484C198.389 56.5858 197.626 56.2698 196.83 56.2698L182.91 56.2798ZM168.91 49.5098L174.91 56.2798H139.69L146.49 48.4898C147.998 47.0183 149.792 45.8719 151.761 45.1212C153.73 44.3705 155.832 44.0315 157.937 44.1252C160.042 44.2189 162.105 44.7434 163.999 45.6661C165.894 46.5888 167.579 47.8901 168.95 49.4898L168.91 49.5098ZM111.71 11.6698L111.94 11.4098C113.382 9.71938 115.172 8.3607 117.188 7.42685C119.203 6.493 121.397 6.00607 123.619 5.99942C125.841 5.99277 128.037 6.46657 130.059 7.38833C132.08 8.3101 133.878 9.65804 135.33 11.3398L159 38.1998C158.418 38.143 157.834 38.1163 157.25 38.1198C154.458 38.1103 151.692 38.6512 149.11 39.7116C146.527 40.7721 144.179 42.3312 142.2 44.2998L133.09 54.7198L103.59 20.9398L111.71 11.6698ZM126.45 56.2798H73.33L99.91 25.8698L126.45 56.2798ZM64.45 11.2798C65.9041 9.60247 67.7031 8.25889 69.7242 7.34087C71.7453 6.42284 73.9408 5.95201 76.1607 5.96056C78.3805 5.9691 80.5723 6.45682 82.5862 7.39038C84.6002 8.32394 86.3889 9.68132 87.83 11.3698L88.04 11.6098L96.2 20.8798L66.74 54.7198L57.74 44.4598L57.59 44.2998C53.5912 40.3258 48.1776 38.1028 42.54 38.1198C41.9524 38.1162 41.3649 38.1429 40.78 38.1998L64.45 11.2798ZM30.9 49.4798C32.2745 47.8928 33.9588 46.6035 35.8496 45.6909C37.7403 44.7784 39.7975 44.2617 41.8951 44.1728C43.9926 44.0838 46.0862 44.4244 48.0474 45.1736C50.0086 45.9229 51.796 47.0649 53.3 48.5298L60.1 56.3198H24.92L30.9 49.4798ZM31.08 69.2898L24.92 62.2898H60.14L53.34 70.0698C51.8502 71.5234 50.0813 72.6601 48.1402 73.4114C46.199 74.1627 44.1257 74.5129 42.0455 74.441C39.9652 74.369 37.9211 73.8763 36.0365 72.9927C34.1519 72.1091 32.4658 70.8529 31.08 69.2998V69.2898ZM88.08 106.88L87.85 107.15C86.4077 108.841 84.6164 110.201 82.5993 111.135C80.5821 112.069 78.3867 112.555 76.1638 112.561C73.9409 112.567 71.743 112.091 69.7211 111.168C67.6992 110.244 65.901 108.894 64.45 107.21L40.83 80.3598C41.4116 80.4165 41.9957 80.4432 42.58 80.4398C48.2189 80.4529 53.6322 78.2265 57.63 74.2498L66.74 63.8298L96.24 97.6098L88.08 106.88ZM73.35 62.2798H126.49L99.91 92.6898L73.35 62.2798ZM135.35 107.28C133.898 108.96 132.099 110.306 130.078 111.226C128.057 112.146 125.86 112.618 123.639 112.61C121.418 112.601 119.226 112.112 117.212 111.177C115.197 110.241 113.409 108.881 111.97 107.19C111.902 107.108 111.828 107.031 111.75 106.96V106.96L103.59 97.6898L133.09 63.9198L142.09 74.1698L142.24 74.3298C144.219 76.2997 146.567 77.8604 149.149 78.9225C151.731 79.9846 154.498 80.5274 157.29 80.5198C157.874 80.5232 158.458 80.4965 159.04 80.4398L135.35 107.28ZM168.92 69.1198C167.55 70.7176 165.866 72.0174 163.973 72.9391C162.081 73.8607 160.019 74.3845 157.917 74.4783C155.814 74.572 153.714 74.2336 151.747 73.4839C149.78 72.7343 147.987 71.5893 146.48 70.1198L139.68 62.3398H174.9L168.92 69.1198Z" fill="#18181B"/>
</g>
<defs>
<clipPath id="clip0">
<rect width="199.83" height="118.56" fill="white"/>
</clipPath>
</defs>
</svg>
